<?xml version="1.0" encoding="UTF-8"?>
<svg xmlns="http://www.w3.org/2000/svg" xmlns:xlink="http://www.w3.org/1999/xlink" width="100px" height="100px" viewBox="0 0 100 100" version="1.1">
<g id="surface1">
<path style=" stroke:none;fill-rule:nonzero;fill:rgb(0%,0%,0%);fill-opacity:1;" d="M 48.101562 20.460938 C 47.898438 20.566406 47.609375 20.824219 47.453125 21.035156 C 46.925781 21.769531 46.433594 22.246094 46.019531 22.425781 C 45.460938 22.667969 45.257812 22.863281 44.628906 23.796875 C 44.019531 24.695312 43.871094 24.84375 43.398438 25.046875 C 42.332031 25.488281 41.738281 24.878906 41.5625 23.121094 C 41.445312 21.972656 41.445312 21.859375 41.527344 21.582031 C 41.601562 21.371094 41.582031 21.359375 41.285156 21.40625 C 41.082031 21.445312 40.898438 21.417969 40.789062 21.332031 C 40.558594 21.15625 40.230469 21.167969 39.941406 21.359375 C 39.816406 21.445312 39.390625 21.554688 39 21.613281 L 38.289062 21.710938 L 38.066406 22.136719 C 37.753906 22.730469 37.832031 22.917969 38.386719 22.832031 C 38.898438 22.765625 39.445312 23.007812 39.609375 23.371094 C 39.667969 23.5 39.777344 23.613281 39.851562 23.613281 C 39.953125 23.613281 39.992188 23.824219 40.011719 24.601562 C 40.046875 25.488281 40.074219 25.644531 40.296875 26.03125 C 40.628906 26.601562 41.371094 27.25 41.859375 27.417969 C 42.121094 27.5 42.667969 27.546875 43.339844 27.546875 L 44.417969 27.558594 L 44.695312 27.871094 C 44.890625 28.09375 45.101562 28.566406 45.351562 29.320312 C 45.722656 30.425781 45.730469 30.472656 45.761719 31.917969 C 45.785156 33.222656 45.765625 33.4375 45.582031 33.925781 C 45.472656 34.261719 45.316406 34.511719 45.214844 34.546875 C 44.980469 34.628906 44.785156 34.878906 44.863281 35 C 44.898438 35.058594 45.398438 35.09375 46.167969 35.09375 C 47.210938 35.09375 47.425781 35.0625 47.472656 34.941406 C 47.5 34.871094 47.480469 34.757812 47.417969 34.695312 C 47.363281 34.636719 47.316406 34.441406 47.316406 34.261719 C 47.316406 34.082031 47.246094 33.722656 47.167969 33.472656 C 47.085938 33.183594 47.027344 32.695312 47.039062 32.171875 C 47.046875 31.714844 47 30.703125 46.941406 29.914062 C 46.859375 28.757812 46.871094 28.472656 46.964844 28.410156 C 47.175781 28.277344 47.777344 28.324219 48.433594 28.527344 C 49.378906 28.8125 50.582031 28.75 51.710938 28.34375 C 52.988281 27.878906 52.90625 27.886719 52.839844 28.222656 C 52.757812 28.628906 52.839844 28.777344 53.230469 28.972656 C 53.417969 29.074219 53.65625 29.25 53.769531 29.371094 C 54.0625 29.683594 54.34375 31.101562 54.316406 32.203125 C 54.296875 32.988281 54.269531 33.109375 53.933594 33.785156 C 53.703125 34.25 53.480469 34.566406 53.316406 34.660156 C 53.175781 34.742188 53.058594 34.871094 53.058594 34.953125 C 53.058594 35.074219 53.230469 35.09375 54.25 35.09375 C 55.460938 35.09375 55.683594 35.035156 55.460938 34.769531 C 55.378906 34.667969 55.378906 34.554688 55.453125 34.34375 C 55.507812 34.175781 55.558594 33.90625 55.558594 33.730469 C 55.558594 33.554688 55.703125 32.925781 55.890625 32.324219 L 56.222656 31.238281 L 55.796875 30.390625 C 55.332031 29.464844 55.304688 29.304688 55.507812 28.691406 C 55.582031 28.472656 55.703125 27.886719 55.777344 27.398438 C 55.863281 26.90625 55.957031 26.40625 55.996094 26.285156 C 56.152344 25.898438 56.417969 26.933594 56.425781 27.914062 C 56.433594 28.613281 56.472656 28.808594 56.636719 29.074219 C 56.777344 29.285156 56.851562 29.34375 56.851562 29.238281 C 56.851562 29.140625 56.894531 29.101562 56.992188 29.128906 C 57.066406 29.167969 57.128906 29.25 57.128906 29.332031 C 57.128906 29.601562 57.230469 29.371094 57.363281 28.824219 C 57.585938 27.90625 57.558594 27.753906 57.046875 27.1875 C 56.714844 26.816406 56.574219 26.566406 56.480469 26.191406 C 56.203125 25.019531 56.042969 24.746094 55.34375 24.210938 C 54.972656 23.941406 54.492188 23.53125 54.269531 23.296875 C 53.972656 23 53.667969 22.804688 53.230469 22.632812 C 52.417969 22.324219 52.222656 22.160156 51.660156 21.324219 C 51.035156 20.410156 50.769531 20.289062 49.445312 20.277344 C 48.648438 20.277344 48.40625 20.316406 48.101562 20.460938 Z M 46.613281 33.535156 C 46.613281 34.195312 46.582031 34.378906 46.433594 34.539062 C 46.191406 34.796875 46.054688 34.636719 46.191406 34.25 C 46.25 34.089844 46.296875 33.714844 46.296875 33.425781 C 46.296875 33.128906 46.324219 32.757812 46.359375 32.585938 C 46.417969 32.285156 46.417969 32.285156 46.507812 32.511719 C 46.566406 32.632812 46.613281 33.09375 46.613281 33.535156 Z M 55.046875 33.527344 C 54.964844 33.75 54.851562 34.074219 54.804688 34.234375 C 54.710938 34.527344 54.394531 34.796875 54.277344 34.675781 C 54.25 34.648438 54.269531 34.539062 54.332031 34.441406 C 54.394531 34.34375 54.445312 34.195312 54.445312 34.101562 C 54.445312 34.019531 54.601562 33.613281 54.796875 33.203125 C 55.128906 32.480469 55.136719 32.460938 55.167969 32.789062 C 55.183594 32.972656 55.128906 33.304688 55.046875 33.527344 Z M 55.046875 33.527344 "/>
<path style=" stroke:none;fill-rule:nonzero;fill:rgb(0%,0%,0%);fill-opacity:1;" d="M 12.535156 35.277344 C 9.730469 35.628906 7.824219 37.269531 6.972656 40.0625 C 6.75 40.816406 6.734375 41.007812 6.722656 42.546875 C 6.722656 44.480469 6.859375 45.136719 7.519531 46.480469 C 7.832031 47.113281 8.066406 47.425781 8.703125 48.054688 C 9.566406 48.917969 10.175781 49.296875 11.296875 49.648438 C 12.246094 49.945312 14.203125 49.945312 15.316406 49.640625 C 16.582031 49.296875 17.621094 48.691406 18.25 47.9375 L 18.519531 47.609375 L 18.148438 47.371094 C 17.945312 47.242188 17.75 47.128906 17.714844 47.128906 C 17.667969 47.128906 17.527344 47.316406 17.378906 47.535156 C 16.640625 48.722656 15.511719 49.285156 13.664062 49.40625 C 12.160156 49.511719 10.925781 49.121094 9.964844 48.230469 C 9.066406 47.417969 8.527344 46.40625 8.179688 44.925781 C 8.046875 44.371094 8.007812 43.847656 8.019531 42.546875 C 8.019531 40.996094 8.035156 40.816406 8.277344 40.046875 C 8.769531 38.417969 9.613281 37.183594 10.722656 36.453125 C 11.621094 35.851562 12.292969 35.644531 13.398438 35.644531 C 15.460938 35.644531 16.722656 36.3125 17.789062 37.964844 C 18 38.296875 18.109375 38.398438 18.15625 38.304688 C 18.214844 38.214844 18.796875 36.664062 18.796875 36.621094 C 18.796875 36.613281 18.652344 36.601562 18.472656 36.59375 C 18.296875 36.582031 17.769531 36.378906 17.25 36.117188 C 16.75 35.859375 16.027344 35.570312 15.644531 35.472656 C 14.796875 35.257812 13.417969 35.175781 12.535156 35.277344 Z M 12.535156 35.277344 "/>
<path style=" stroke:none;fill-rule:nonzero;fill:rgb(0%,0%,0%);fill-opacity:1;" d="M 32.914062 35.507812 C 33.035156 35.695312 33.167969 36.019531 33.195312 36.230469 C 33.222656 36.441406 33.242188 39.472656 33.222656 42.960938 C 33.195312 48.835938 33.183594 49.324219 33.027344 49.601562 L 32.863281 49.90625 L 33.332031 49.90625 C 33.582031 49.90625 33.796875 49.890625 33.796875 49.878906 C 33.796875 49.863281 33.722656 49.707031 33.640625 49.527344 C 33.484375 49.238281 33.472656 48.691406 33.445312 42.796875 C 33.4375 39.257812 33.457031 36.398438 33.5 36.417969 C 33.535156 36.441406 34.878906 39.472656 36.480469 43.140625 C 38.082031 46.808594 39.417969 49.785156 39.445312 49.769531 C 39.472656 49.746094 40.765625 46.734375 42.316406 43.058594 L 45.136719 36.371094 L 45.167969 42.789062 C 45.183594 48.90625 45.175781 49.222656 45.011719 49.554688 L 44.84375 49.90625 L 46.832031 49.90625 L 46.65625 49.5625 C 46.492188 49.230469 46.480469 48.90625 46.480469 42.546875 C 46.480469 36.1875 46.492188 35.859375 46.65625 35.527344 L 46.832031 35.183594 L 45.398438 35.183594 L 42.628906 41.667969 C 41.113281 45.21875 39.851562 48.121094 39.824219 48.09375 C 39.796875 48.070312 38.546875 45.167969 37.035156 41.640625 L 34.285156 35.230469 L 33.492188 35.203125 L 32.683594 35.175781 Z M 32.914062 35.507812 "/>
<path style=" stroke:none;fill-rule:nonzero;fill:rgb(0%,0%,0%);fill-opacity:1;" d="M 47.683594 35.214844 C 47.683594 35.230469 47.757812 35.390625 47.851562 35.566406 C 48 35.851562 48.007812 36.378906 48.007812 42.546875 C 48.007812 48.714844 48 49.238281 47.851562 49.527344 C 47.757812 49.707031 47.683594 49.863281 47.683594 49.878906 C 47.683594 49.890625 49.148438 49.90625 50.921875 49.90625 C 54.519531 49.90625 55.121094 49.84375 56.175781 49.34375 C 56.492188 49.195312 56.980469 48.859375 57.257812 48.613281 C 58.242188 47.714844 58.617188 46.816406 58.617188 45.414062 C 58.613281 43.121094 57.5625 41.738281 55.371094 41.167969 C 54.972656 41.066406 54.898438 41.019531 55.046875 40.972656 C 55.675781 40.738281 56.035156 40.535156 56.371094 40.242188 C 57.296875 39.398438 57.480469 37.628906 56.734375 36.648438 C 56.074219 35.804688 54.863281 35.410156 52.453125 35.277344 C 50.933594 35.195312 47.683594 35.148438 47.683594 35.214844 Z M 53.09375 35.742188 C 54.453125 35.960938 55.269531 36.378906 55.648438 37.054688 C 55.835938 37.378906 55.871094 37.582031 55.871094 38.144531 C 55.871094 39.074219 55.714844 39.5625 55.257812 40.058594 C 54.683594 40.675781 54.160156 40.835938 52.316406 40.933594 C 51.3125 40.980469 50.527344 41.074219 50.054688 41.203125 C 49.648438 41.308594 49.308594 41.386719 49.285156 41.386719 C 49.230469 41.386719 49.257812 36.230469 49.316406 35.933594 L 49.378906 35.644531 L 50.960938 35.644531 C 51.832031 35.644531 52.796875 35.683594 53.09375 35.742188 Z M 54.546875 41.453125 C 55.363281 41.695312 55.910156 42.027344 56.417969 42.59375 C 57.101562 43.351562 57.257812 43.878906 57.269531 45.371094 C 57.269531 46.554688 57.257812 46.648438 57 47.195312 C 56.722656 47.804688 56.027344 48.554688 55.460938 48.84375 C 54.492188 49.34375 54.25 49.378906 51.75 49.425781 L 49.378906 49.464844 L 49.324219 49.101562 C 49.285156 48.90625 49.257812 47.222656 49.257812 45.351562 L 49.257812 41.953125 L 49.527344 41.769531 C 50.167969 41.308594 50.761719 41.203125 52.5 41.25 C 53.566406 41.269531 54.089844 41.324219 54.546875 41.453125 Z M 54.546875 41.453125 "/>
<path style=" stroke:none;fill-rule:nonzero;fill:rgb(0%,0%,0%);fill-opacity:1;" d="M 72.660156 35.484375 C 72.8125 35.769531 72.824219 36.25 72.824219 42.546875 C 72.824219 48.84375 72.8125 49.324219 72.660156 49.601562 L 72.488281 49.90625 L 77.269531 49.90625 C 79.890625 49.90625 82.039062 49.871094 82.039062 49.832031 C 82.039062 49.792969 82.121094 49.398438 82.210938 48.953125 L 82.390625 48.144531 L 82.011719 48.472656 C 81.574219 48.84375 80.605469 49.183594 79.539062 49.34375 C 79.160156 49.398438 77.816406 49.472656 76.554688 49.511719 L 74.269531 49.5625 L 74.195312 49.296875 C 74.160156 49.148438 74.121094 46.066406 74.121094 42.453125 C 74.121094 36.371094 74.128906 35.851562 74.285156 35.566406 C 74.371094 35.390625 74.445312 35.230469 74.445312 35.214844 C 74.445312 35.203125 74.007812 35.183594 73.472656 35.183594 L 72.488281 35.183594 Z M 72.660156 35.484375 "/>
<path style=" stroke:none;fill-rule:nonzero;fill:rgb(0%,0%,0%);fill-opacity:1;" d="M 83.242188 35.214844 C 83.242188 35.230469 83.3125 35.390625 83.410156 35.566406 C 83.554688 35.851562 83.566406 36.378906 83.566406 42.546875 C 83.566406 48.714844 83.554688 49.238281 83.410156 49.527344 C 83.3125 49.707031 83.242188 49.863281 83.242188 49.878906 C 83.242188 49.890625 85.378906 49.90625 87.988281 49.90625 L 92.75 49.90625 L 92.863281 49.324219 C 92.914062 49.007812 92.988281 48.617188 93.027344 48.472656 L 93.082031 48.195312 L 92.863281 48.386719 C 92.519531 48.691406 91.90625 48.96875 91.140625 49.164062 C 90.277344 49.390625 87.953125 49.554688 86.25 49.515625 L 84.964844 49.488281 L 84.890625 49.128906 C 84.84375 48.925781 84.824219 45.839844 84.832031 42.28125 C 84.863281 36.261719 84.871094 35.769531 85.027344 35.484375 L 85.195312 35.183594 L 84.210938 35.183594 C 83.675781 35.183594 83.242188 35.203125 83.242188 35.214844 Z M 83.242188 35.214844 "/>
<path style=" stroke:none;fill-rule:nonzero;fill:rgb(0%,0%,0%);fill-opacity:1;" d="M 23.296875 41.417969 C 20.34375 48.964844 20.324219 49 19.941406 49.5 L 19.628906 49.90625 L 20.535156 49.90625 L 20.535156 49.511719 C 20.535156 49.066406 20.621094 48.824219 21.371094 46.894531 L 21.917969 45.507812 L 25.207031 45.480469 L 28.480469 45.460938 L 29.160156 47.195312 C 29.675781 48.507812 29.84375 49.054688 29.851562 49.417969 L 29.863281 49.90625 L 30.878906 49.90625 C 31.582031 49.902344 31.851562 49.871094 31.738281 49.816406 C 31.386719 49.601562 30.910156 48.5 28.417969 42.121094 C 26.980469 38.433594 25.777344 35.390625 25.75 35.351562 C 25.714844 35.3125 24.613281 38.046875 23.296875 41.417969 Z M 26.804688 41.1875 C 27.644531 43.335938 28.335938 45.132812 28.335938 45.183594 C 28.335938 45.25 27.257812 45.277344 25.183594 45.277344 C 23.457031 45.277344 22.039062 45.257812 22.039062 45.242188 C 22.039062 45.183594 25.09375 37.402344 25.148438 37.292969 C 25.175781 37.246094 25.222656 37.222656 25.242188 37.242188 C 25.257812 37.257812 25.960938 39.039062 26.804688 41.1875 Z M 26.804688 41.1875 "/>
<path style=" stroke:none;fill-rule:nonzero;fill:rgb(0%,0%,0%);fill-opacity:1;" d="M 63.886719 39.464844 C 60.277344 48.703125 60.109375 49.121094 59.757812 49.515625 L 59.425781 49.90625 L 60.417969 49.90625 L 60.425781 49.371094 C 60.4375 48.941406 60.566406 48.507812 61.113281 47.148438 L 61.777344 45.460938 L 68.3125 45.460938 L 68.796875 46.683594 C 69.589844 48.722656 69.742188 49.183594 69.703125 49.554688 L 69.667969 49.90625 L 71.683594 49.90625 L 71.378906 49.5625 C 70.972656 49.101562 70.9375 49 68.09375 41.734375 C 66.734375 38.230469 65.582031 35.371094 65.558594 35.371094 C 65.519531 35.371094 64.777344 37.210938 63.886719 39.464844 Z M 66.613281 41.105469 C 67.453125 43.261719 68.148438 45.085938 68.148438 45.148438 C 68.148438 45.257812 67.628906 45.277344 65.046875 45.277344 C 62.628906 45.277344 61.945312 45.25 61.945312 45.15625 C 61.945312 45.035156 65.019531 37.113281 65.058594 37.160156 C 65.0625 37.167969 65.761719 38.945312 66.613281 41.105469 Z M 66.613281 41.105469 "/>
</g>
</svg>
