<?xml version="1.0" standalone="no"?>
<!DOCTYPE svg PUBLIC "-//W3C//DTD SVG 20010904//EN"
 "http://www.w3.org/TR/2001/REC-SVG-20010904/DTD/svg10.dtd">
<svg version="1.0" xmlns="http://www.w3.org/2000/svg"
 width="1080.000000pt" height="1080.000000pt" viewBox="0 0 1080.000000 1080.000000"
 preserveAspectRatio="xMidYMid meet">

<g transform="translate(0.000000,1080.000000) scale(0.100000,-0.100000)"
fill="#000000" stroke="none">
<path d="M0 5400 l0 -5400 5400 0 5400 0 0 5400 0 5400 -5400 0 -5400 0 0
-5400z m5470 1240 c18 -22 46 -48 64 -57 43 -22 136 -102 136 -117 0 -7 11
-34 25 -60 29 -54 33 -106 10 -106 -18 0 -21 8 -30 73 -4 27 -9 47 -11 44 -3
-3 -12 -33 -20 -66 -13 -58 -13 -64 6 -101 18 -35 18 -42 5 -87 -7 -26 -15
-64 -17 -83 -4 -33 -7 -35 -42 -38 -42 -4 -76 5 -61 16 40 29 57 93 44 171 -6
42 -15 61 -34 74 -14 10 -25 25 -25 33 0 17 2 17 -51 -2 -33 -12 -63 -14 -121
-9 l-78 6 0 -93 c0 -51 5 -113 11 -137 9 -39 7 -46 -11 -63 -20 -19 -21 -27
-18 -329 l3 -309 -35 0 -35 0 2 292 c1 169 -1 285 -6 273 -5 -11 -59 -139
-121 -285 -62 -146 -113 -266 -115 -268 -1 -2 -58 122 -125 275 -67 153 -124
280 -127 282 -2 3 -3 -123 -3 -280 1 -197 -2 -284 -10 -284 -7 0 -11 99 -13
318 l-2 318 29 -3 c28 -3 33 -13 142 -267 63 -146 117 -268 122 -273 4 -4 60
115 124 265 64 149 113 276 109 280 -4 4 1 26 12 48 16 33 18 51 12 114 -4 44
-15 92 -28 117 -22 43 -22 43 -85 48 -58 5 -67 9 -98 42 -26 29 -34 46 -34 76
0 51 -23 82 -61 82 -26 0 -30 3 -27 22 2 17 14 26 51 36 78 22 94 13 102 -58
13 -115 66 -131 131 -40 20 28 41 50 46 50 6 0 32 23 59 50 47 49 50 50 108
50 57 0 60 -1 91 -40z m-1492 -637 c37 -15 68 -28 70 -28 4 -2 -19 -65 -24
-65 -2 0 -23 20 -47 44 -90 94 -233 88 -320 -14 -50 -59 -67 -115 -67 -227 0
-136 33 -211 116 -259 83 -49 207 -32 270 35 21 22 35 30 48 25 15 -6 15 -9
-10 -35 -42 -44 -117 -71 -199 -72 -90 0 -145 24 -207 90 -56 61 -78 125 -78
230 0 248 204 373 448 276z m1641 16 c23 -7 53 -26 67 -42 44 -52 25 -141 -39
-173 l-32 -17 40 -14 c83 -29 120 -92 113 -193 -5 -72 -37 -118 -105 -151 -44
-21 -61 -24 -201 -24 l-152 0 -3 319 -2 319 135 -6 c75 -3 155 -11 179 -18z
m823 -236 c-2 -141 -1 -281 3 -310 l6 -53 88 0 c99 0 179 13 224 35 17 8 31
15 32 15 7 0 -10 -56 -19 -62 -6 -4 -98 -8 -203 -8 l-192 0 -3 320 -3 320 35
0 35 0 -3 -257z m470 -53 l-3 -310 89 0 c99 0 192 15 235 36 27 15 28 15 21
-13 -4 -15 -9 -31 -11 -35 -2 -5 -93 -8 -201 -8 l-197 0 0 320 0 320 35 0 35
0 -3 -310z m-2348 -227 l44 -103 -37 0 c-35 0 -37 2 -48 48 -6 26 -20 68 -32
95 l-20 47 -143 0 -143 0 -28 -72 c-15 -40 -27 -81 -27 -90 0 -9 -5 -20 -11
-23 -21 -13 -21 5 -1 48 11 24 64 154 117 288 53 134 101 255 107 269 9 22 19
1 94 -190 46 -118 104 -261 128 -317z m1755 -76 c20 -20 12 -27 -29 -27 -31 0
-40 4 -40 18 0 9 -12 52 -27 95 l-28 77 -146 0 -146 0 -26 -77 c-15 -43 -27
-86 -27 -95 0 -12 -8 -18 -21 -18 -20 0 -21 1 -5 25 9 14 64 145 122 292 58
148 110 279 116 293 9 22 24 -10 128 -274 65 -164 123 -303 129 -309z"/>
<path d="M5242 6128 c-1 -20 -5 -45 -8 -55 -5 -14 -4 -15 5 -7 7 7 11 29 8 55
-3 42 -4 42 -5 7z"/>
<path d="M5602 6116 c-18 -40 -15 -68 4 -33 8 16 14 36 12 44 -2 12 -7 9 -16
-11z"/>
<path d="M5370 5897 l0 -125 38 9 c20 5 57 9 82 9 110 1 160 38 160 120 0 76
-42 101 -182 108 l-98 5 0 -126z"/>
<path d="M5403 5766 l-33 -15 0 -167 0 -167 111 6 c178 9 229 50 229 183 0 64
-3 76 -26 104 -39 46 -76 61 -167 66 -60 3 -91 1 -114 -10z"/>
<path d="M4262 5785 c-34 -86 -62 -162 -62 -170 0 -12 22 -15 124 -15 69 0
127 4 131 9 6 10 -116 331 -126 331 -3 0 -33 -70 -67 -155z"/>
<path d="M5981 5780 c-34 -89 -59 -165 -56 -170 4 -6 60 -10 125 -10 65 0 121
4 125 10 7 11 -114 330 -125 330 -4 0 -35 -72 -69 -160z"/>
</g>
</svg>
